<svg width="605" height="608" viewBox="0 0 605 608" fill="none" xmlns="http://www.w3.org/2000/svg">
<path d="M271.186 42.5328C331.773 66.6179 337.587 128.21 392.143 133.512C439.683 138.104 457.756 93.5214 491.105 101.523C541.936 113.684 573.865 234.839 553.466 334.451C532.396 437.315 443.861 574.04 297.183 583.363C132.509 593.848 7.90552 436.507 0.297668 298.461C-0.530151 283.521 -5.37872 158.425 90.252 84.5339C95.0217 80.8285 189.273 9.97264 271.186 42.5328Z" fill="#F8F8F8"/>
<g opacity="0.5">
<path d="M66.2455 209.414C60.2933 212.429 52.8233 209.67 49.5515 203.225C46.2797 196.78 48.4478 189.113 54.4001 186.077C54.7154 185.92 55.0308 185.782 55.3462 185.664C54.2424 182.096 53.4146 178.509 52.8431 174.902C52.508 174.902 52.1532 174.902 51.8181 174.863C45.0183 174.252 39.6376 168.023 39.7756 160.928C39.9136 153.833 45.5308 148.57 52.3306 149.181C52.6854 149.221 53.0401 149.26 53.3752 149.339C54.0847 145.831 55.0505 142.401 56.2725 139.07C55.9571 138.893 55.6418 138.696 55.3462 138.479C49.5318 134.419 47.6791 126.377 51.2072 120.543C54.7155 114.709 62.2839 113.27 68.0982 117.331C68.3939 117.547 68.6698 117.764 68.9458 118.001C71.2321 115.458 73.7549 113.113 76.4748 110.964C76.2777 110.649 76.1003 110.334 75.9229 109.999C72.6511 103.554 68.3742 96.5173 74.3659 93.5805C88.2414 86.8004 94.1937 92.6148 97.4655 99.0401C97.6429 99.3751 97.7808 99.7102 97.9188 100.045C101.25 99.1189 104.64 98.4685 108.049 98.1137C108.03 97.759 108.01 97.4042 108.01 97.0297C108.148 89.9343 106.039 86.0909 112.859 85.9727C127.72 85.677 132.746 92.1417 132.588 99.2175C132.588 99.5919 132.548 99.9467 132.509 100.301C135.919 101.267 139.269 102.509 142.522 104.007C142.679 103.692 142.837 103.376 143.014 103.081C146.523 97.2465 154.091 95.8077 159.905 99.8679C165.72 103.948 167.572 111.97 164.044 117.804C163.867 118.099 163.67 118.375 163.473 118.651C166.055 121.233 168.459 124.012 170.686 127.008C170.982 126.831 171.258 126.653 171.573 126.495C177.526 123.48 184.996 126.239 188.267 132.684C191.539 139.129 189.371 146.796 183.419 149.832C183.103 149.989 182.788 150.127 182.473 150.245C183.576 153.813 184.404 157.4 184.976 161.007C185.311 161.007 185.666 161.007 186.001 161.046C192.801 161.657 198.181 167.886 198.043 174.981C197.905 182.076 192.288 187.339 185.488 186.728C185.134 186.688 184.779 186.649 184.444 186.57C183.734 190.078 182.768 193.508 181.546 196.839C181.862 197.016 182.177 197.213 182.473 197.43C188.287 201.49 190.14 209.532 186.612 215.366C183.103 221.2 171.455 223.92 165.641 219.84C165.345 219.623 169.149 218.125 168.873 217.908C166.587 220.451 164.064 222.796 161.344 224.945C161.541 225.26 161.719 225.575 161.896 225.91C165.168 232.355 163 240.022 157.047 243.058C151.095 246.073 143.625 243.314 140.353 236.869C140.176 236.534 140.038 236.199 139.9 235.864C136.569 236.79 133.179 237.441 129.769 237.795C129.789 238.15 129.809 238.505 129.809 238.879C129.671 245.975 124.054 251.237 117.254 250.626C110.454 250.015 105.073 243.787 105.211 236.692C105.211 236.317 105.251 235.962 105.29 235.608C101.88 234.642 98.5298 233.4 95.2777 231.902C95.12 232.217 94.9623 232.533 94.7849 232.828C91.2766 238.663 83.7082 240.101 77.8939 236.041C72.0795 231.961 70.2269 223.939 73.7549 218.105C73.9322 217.81 74.1294 217.534 74.3265 217.258C71.7445 214.676 69.3399 211.897 67.1127 208.901C66.8565 209.098 66.5609 209.276 66.2455 209.414ZM140.452 210.36C162.054 199.381 169.957 171.532 158.072 148.137C146.187 124.741 119.047 114.67 97.4457 125.628C75.8441 136.606 67.9406 164.456 79.8254 187.851C91.6906 211.266 118.831 221.338 140.452 210.36Z" fill="#C9CED6"/>
<path d="M51.8194 174.882C45.0196 174.271 39.6389 168.043 39.7769 160.947C39.9148 153.852 45.5321 148.589 52.3319 149.2C52.6866 149.24 53.0414 149.279 53.3765 149.358C54.086 145.85 55.0518 142.42 56.2738 139.089C55.9584 138.912 55.6431 138.715 55.3474 138.498C49.5331 134.438 42.3588 124.603 46.4584 119.143C54.2437 108.796 62.2852 113.29 68.0995 117.35C68.3951 117.567 68.6711 117.783 68.947 118.02C71.2333 115.477 73.7561 113.132 76.4761 110.984C76.279 110.668 76.1016 110.353 75.9242 110.018C74.1503 106.51 73.9927 102.646 75.1555 99.355C80.7727 109.229 86.3111 119.143 91.7312 129.116C74.4854 141.75 69.0061 166.643 79.7873 187.871C88.9128 205.846 107.065 215.957 124.784 214.695C125.573 216.745 126.341 218.815 127.189 220.845C129.495 226.363 132.096 231.744 134.718 237.144C133.082 237.46 131.426 237.696 129.771 237.874C129.79 238.228 129.81 238.583 129.81 238.958C129.672 246.053 125.356 252.084 113.057 251.414C106.257 251.059 105.075 243.846 105.213 236.75C105.213 236.376 105.252 236.021 105.291 235.666C101.882 234.7 98.531 233.459 95.2789 231.961C95.1213 232.276 94.9636 232.592 94.7862 232.887C91.2779 238.721 79.058 241.205 73.2634 237.144C67.4491 233.065 70.2478 223.998 73.7561 218.164C73.9335 217.868 74.1306 217.593 74.3277 217.317C71.7458 214.735 69.3412 211.956 67.114 208.96C66.8184 209.137 66.5424 209.315 66.2271 209.472C60.2748 212.488 52.8049 209.728 49.5331 203.283C46.2613 196.838 48.4293 189.171 54.3816 186.136C54.697 185.978 55.0123 185.84 55.3277 185.722C54.224 182.155 53.3962 178.568 52.8246 174.961C52.5092 174.921 52.1544 174.902 51.8194 174.882Z" fill="#D8DEE8"/>
<path d="M59.8595 210.142C53.9072 213.158 46.4373 210.399 43.1655 203.954C39.8937 197.509 42.0618 189.842 48.014 186.806C48.3294 186.649 48.6447 186.511 48.9601 186.392C47.8563 182.825 47.0285 179.238 46.457 175.631C46.1219 175.631 45.7671 175.631 45.4321 175.592C38.6323 174.981 33.2515 168.752 33.3895 161.657C33.5275 154.561 39.1447 149.299 45.9445 149.91C46.2993 149.949 46.654 149.989 46.9891 150.068C47.6986 146.559 48.6644 143.13 49.9061 139.799C49.5908 139.622 49.2754 139.425 48.9798 139.208C43.1655 135.148 41.3128 127.106 44.8408 121.272C48.3688 115.438 55.9175 113.999 61.7319 118.059C62.0275 118.276 62.3034 118.493 62.5794 118.729C64.8657 116.187 67.3885 113.842 70.1084 111.693C69.9113 111.378 69.7339 111.062 69.5565 110.727C66.2848 104.282 68.4528 96.6154 74.4051 93.5801C80.3574 90.5645 87.8273 93.3239 91.0991 99.7689C91.2765 100.104 91.4145 100.439 91.5524 100.774C94.8833 99.8477 98.2734 99.1973 101.683 98.8426C101.663 98.4878 101.644 98.133 101.644 97.7585C101.782 90.6631 107.399 85.4006 114.199 86.0116C120.998 86.6226 126.379 92.8508 126.241 99.9463C126.241 100.321 126.202 100.676 126.162 101.03C129.572 101.996 132.923 103.238 136.175 104.736C136.332 104.42 136.49 104.105 136.668 103.809C140.196 97.9753 147.744 96.5365 153.559 100.597C159.373 104.677 161.226 112.698 157.698 118.532C157.52 118.828 157.323 119.104 157.126 119.38C159.708 121.962 162.113 124.741 164.34 127.737C164.635 127.559 164.911 127.382 165.227 127.224C171.179 124.209 178.649 126.968 181.921 133.413C185.192 139.858 183.024 147.525 177.072 150.56C176.757 150.718 176.441 150.856 176.126 150.974C177.23 154.542 178.058 158.129 178.629 161.736C178.964 161.736 179.319 161.736 179.654 161.775C186.454 162.386 191.835 168.614 191.697 175.71C191.559 182.805 185.941 188.068 179.142 187.457C178.787 187.417 178.432 187.378 178.097 187.299C177.387 190.807 176.422 194.237 175.18 197.568C175.495 197.745 175.811 197.942 176.106 198.159C181.921 202.219 183.773 210.261 180.245 216.095C176.717 221.929 169.169 223.367 163.354 219.307C163.059 219.091 162.783 218.874 162.507 218.637C160.22 221.18 157.698 223.525 154.978 225.673C155.175 225.989 155.352 226.304 155.53 226.639C158.801 233.084 156.633 240.751 150.681 243.787C144.729 246.802 137.259 244.043 133.987 237.598C133.81 237.263 133.672 236.928 133.534 236.593C130.203 237.519 126.813 238.169 123.403 238.524C123.423 238.879 123.442 239.234 123.442 239.608C123.305 246.704 117.687 251.966 110.888 251.355C104.088 250.744 98.707 244.516 98.8449 237.42C98.8449 237.046 98.8843 236.691 98.9238 236.336C95.514 235.371 92.1634 234.129 88.9113 232.631C88.7537 232.946 88.596 233.262 88.4186 233.557C84.8906 239.391 77.3418 240.83 71.5275 236.77C65.7132 232.69 63.8605 224.668 67.3885 218.834C67.5659 218.539 67.763 218.263 67.9601 217.987C65.3781 215.405 62.9736 212.626 60.7464 209.63C60.4507 209.827 60.1551 209.985 59.8595 210.142ZM134.046 211.088C155.648 200.11 163.551 172.261 151.667 148.865C139.782 125.47 112.642 115.399 91.0399 126.357C69.4383 137.335 61.5348 165.185 73.4196 188.58C85.2848 211.995 112.425 222.067 134.046 211.088Z" fill="#D8DEE8"/>
</g>
<path d="M436.367 476.307L388 441.322C388 441.322 396.849 409.925 421.348 400.997C471.371 382.765 451.918 340.232 446.419 321.193C438.141 292.476 443.679 267.129 475.648 271.209C511.815 275.821 516.19 221.62 496.146 177.195C476.535 133.715 542.522 73.759 593.61 163.97C624.12 217.856 582.001 261.039 565.918 287.923C549.835 314.787 585.923 344.075 550.722 365.657C520.645 384.086 485.857 388.225 488.676 417.888C491.494 447.531 478.427 469.054 436.367 476.307Z" fill="url(#paint0_linear)"/>
<g opacity="0.5">
<path opacity="0.5" d="M412.183 465.644L411.316 464.738C411.887 464.205 468.138 409.965 507.715 339.405C544.178 274.383 573.505 181.787 506.197 109.867L507.124 109C537.082 141.028 550.701 179.718 547.627 224.045C545.163 259.443 532.096 298.468 508.799 340.055C469.124 410.773 412.754 465.112 412.183 465.644Z" fill="white"/>
<path opacity="0.5" d="M346.929 206.044L346.003 205.177C374.602 174.489 396.4 117.292 396.617 116.721L397.8 117.174C397.583 117.746 375.686 175.179 346.929 206.044Z" fill="white"/>
<path opacity="0.5" d="M546.778 212.909C527.896 166.631 488.358 153.681 487.945 153.563L488.319 152.361C488.713 152.479 528.822 165.586 547.94 212.436L546.778 212.909Z" fill="white"/>
<path opacity="0.5" d="M280.725 347.677C304.12 291.288 247.199 232.12 246.588 231.588L247.357 230.583C248.007 231.056 305.5 291.249 281.888 348.15L280.725 347.677Z" fill="white"/>
<path opacity="0.5" d="M295.784 327.514L294.936 326.588C323.712 300.335 372.631 303.311 373.124 303.35L373.045 304.612C372.552 304.553 324.165 301.616 295.784 327.514Z" fill="white"/>
<path opacity="0.5" d="M221.36 419.558C233.442 399.75 217.418 365.573 217.26 365.238L218.404 364.706C219.074 366.125 234.881 399.848 222.444 420.228L221.36 419.558Z" fill="white"/>
<path opacity="0.5" d="M234.86 406.904L233.974 405.997C247.061 393.167 281.02 392.851 292.176 392.753C293.753 392.733 295.113 392.733 295.349 392.674L295.625 393.896C295.29 393.975 294.383 393.975 292.176 393.994C281.158 394.113 247.593 394.428 234.86 406.904Z" fill="white"/>
</g>
<path d="M270.875 309.577C252.545 311.608 243.104 326.804 237.999 338.846C238.985 340.324 239.182 341.408 239.832 343.123C245.784 358.477 251.599 363.759 259.877 377.95C261.651 381.005 269.613 388.396 273.043 391.195L279.547 396.319C279.547 396.319 320.819 386.504 317.862 362.537C314.906 338.57 352.925 324.281 372.123 314.209C383.909 308.04 387.338 301.437 391.3 298.461C433.321 267.084 454.962 271.715 462.353 253.11C470.513 232.572 446.487 221.042 454.193 198.219C462.885 172.458 499.367 169.896 502.146 143.682C502.619 139.188 502.994 134.557 501.22 128.801C496.864 114.571 483.521 109.466 487.719 94.5069C496.155 64.4104 484.428 31.7714 452.419 28.2434C420.825 24.7548 393.685 70.6977 394.67 141.356C389.644 191.675 381.82 197.391 360.159 207.462C344.982 214.518 299.178 223.604 298.172 252.794C297.187 282.004 291.826 307.232 270.875 309.577Z" fill="url(#paint1_linear)"/>
<g opacity="0.5">
<path opacity="0.5" d="M254.555 371.19L255.344 372.116C260.448 367.8 265.553 363.405 270.5 359.009C307.081 326.449 339.05 291.425 365.481 254.884C387.89 223.92 406.674 191.419 421.278 158.327C433.045 131.699 442.19 104.539 448.458 77.5768C452.873 58.6162 455.829 39.971 457.268 22.1338C457.524 19.0197 457.603 15.8268 457.682 12.7127C457.78 8.57365 457.899 4.31639 458.411 0.236517L457.248 0C456.736 4.1193 456.618 8.43569 456.519 12.5944C456.44 15.6888 456.361 18.862 456.105 21.9367C454.686 39.7147 451.73 58.3008 447.315 77.2023C441.047 104.086 431.921 131.206 420.194 157.755C405.609 190.788 386.865 223.211 364.495 254.135C338.084 290.617 306.194 325.602 269.672 358.083C264.765 362.478 259.66 366.893 254.555 371.19Z" fill="#FCFDFE"/>
<path opacity="0.5" d="M400.721 197.174L401.746 197.824C426.265 156.119 505.221 128.782 506.01 128.526L505.556 127.422C504.768 127.678 425.437 155.134 400.721 197.174Z" fill="#FCFDFE"/>
<path opacity="0.5" d="M321.391 307.035L322.337 307.784C342.481 281.649 327.6 216.47 327.442 215.8L326.299 215.977C326.457 216.647 341.219 281.314 321.391 307.035Z" fill="#FCFDFE"/>
<path opacity="0.5" d="M308.599 320.773L309.407 321.68C325.55 307.469 355.804 297.319 394.612 293.14C396.563 292.923 396.563 292.923 396.721 292.785L395.932 291.879L396.327 292.332L396.11 291.78C395.991 291.8 395.242 291.899 394.395 291.977C355.37 296.176 324.899 306.405 308.599 320.773Z" fill="#FCFDFE"/>
<path opacity="0.5" d="M263.779 363.188L264.784 363.838C276.945 343.38 263.543 308.376 263.405 308.041L262.321 308.395C262.459 308.73 275.644 343.183 263.779 363.188Z" fill="#FCFDFE"/>
<path opacity="0.5" d="M255.521 372.747C273.831 366.499 294.94 365.454 320.03 369.593L320.129 368.431C294.822 364.272 273.536 365.316 255.068 371.623L255.521 372.747Z" fill="#FCFDFE"/>
<path opacity="0.5" d="M443.373 93.0092L444.418 93.6005C456.717 69.5352 475.421 47.559 481.57 40.3453C483.049 38.5912 483.581 37.9802 483.719 37.724L482.694 37.0933C482.576 37.2904 481.728 38.2758 480.664 39.5372C474.495 46.7904 455.711 68.8453 443.373 93.0092Z" fill="#FCFDFE"/>
<path opacity="0.5" d="M429.399 135.542L430.542 135.818C434.661 110.334 403.855 65.7705 402.535 63.8784L401.589 64.4894C401.924 64.9624 433.439 110.531 429.399 135.542Z" fill="#FCFDFE"/>
</g>
<path d="M254.621 379.784C257.267 381.334 264.054 366.738 283.377 356.283C288.196 353.679 313.54 337.599 331.84 350.775C335.4 353.333 338.942 355.899 342.502 358.457C351.502 353 358.979 346.19 350.791 335.063C338.071 317.807 359.155 290.609 371.237 284.569C386.195 277.098 420.615 258.975 401.382 232.015C385.373 209.562 370.489 198.031 389.154 171.677C407.818 145.323 405.658 118.156 379.993 100.687C352.987 82.3036 357.444 33.8864 327.798 28.244C276.112 18.4138 265.057 99.8282 296.908 150.588C328.759 201.347 291.081 196.526 273.407 216.242C271.867 218.17 269.638 221.253 267.683 225.432C255.712 251.035 275.531 272.429 277.968 302.873C281.253 344.405 250.173 377.152 254.621 379.784Z" fill="url(#paint2_linear)"/>
<g opacity="0.5">
<path opacity="0.5" d="M312.389 331.934L313.756 332.629C360.902 237.37 359.086 117.935 309.008 20.8936L307.653 21.4944C357.52 118.131 359.347 237.079 312.389 331.934Z" fill="#FCFDFE"/>
<path opacity="0.5" d="M333.409 277.62L334.634 278.557C360.587 245.797 410.804 243.362 411.303 243.347L411.16 241.868C410.65 241.907 359.766 244.356 333.409 277.62Z" fill="#FCFDFE"/>
<path opacity="0.5" d="M320.567 314.142L322.078 314.428C328.369 272.224 267.122 218.396 266.508 217.865L265.536 218.935C266.131 219.472 326.732 272.739 320.567 314.142Z" fill="#FCFDFE"/>
<path opacity="0.5" d="M346.334 173.335L347.805 173.741C355.737 140.948 402.081 116.758 402.536 116.508L401.78 115.19C401.307 115.447 354.423 139.939 346.334 173.335Z" fill="#FCFDFE"/>
<path opacity="0.5" d="M337.91 104.931L339.311 104.46C324.418 67.6827 275.188 43.7511 274.682 43.5165L274.072 44.8313C274.578 45.0659 323.252 68.7394 337.91 104.931Z" fill="#FCFDFE"/>
</g>
<path d="M59.466 423.026V171.71C59.466 166.565 63.743 165.974 68.9463 165.757L500.664 144.609C507.228 144.353 512.628 148.886 512.628 154.7V432.447L59.466 423.026Z" fill="#97A6B7"/>
<path d="M512.628 432.427V487.889C512.628 493.704 507.228 498.237 500.664 497.961L70.8581 476.005C65.6548 475.788 59.4463 475.098 59.4463 469.934V421.409L512.628 432.427Z" fill="#97A6B7"/>
<path d="M212.215 535.331C220 532.749 225.814 526.146 227.45 518.026L238.783 461.972L335.656 465.421L347.58 523.801C349.255 531.981 342.574 540.18 334.867 543.195L294.345 559.061C286.815 562.018 278.695 563.181 270.654 562.491L184.996 555.159C182.493 554.942 180.482 552.971 180.187 550.448C179.891 547.926 178.137 545.087 180.522 544.299L212.215 535.331Z" fill="#97A6B7"/>
<path d="M211.268 531.921C219.034 529.378 224.848 522.854 226.484 514.833L237.797 459.488L332.305 462.898L344.209 520.548C345.884 528.629 341.47 536.71 333.783 539.686L293.299 555.336C285.77 558.253 277.67 559.416 269.628 558.726L184.069 551.492C181.566 551.276 179.556 549.344 179.28 546.841C178.984 544.358 180.502 541.992 182.887 541.204L211.268 531.921Z" fill="url(#paint3_linear)"/>
<path d="M56.3119 171.709V423.026L323.633 428.564L509.986 432.427V154.68C509.986 148.866 504.487 144.333 497.904 144.589L461.422 146.047L65.9105 161.953C60.7072 162.17 56.3119 166.545 56.3119 171.709Z" fill="url(#paint4_linear)"/>
<path d="M496.388 193.35V410.313C496.388 415.733 491.381 420.01 485.272 419.852L75.51 408.204C70.622 408.066 66.621 404.006 66.621 399.177V205.649L496.388 193.35Z" fill="url(#paint5_linear)"/>
<path d="M66.6407 205.649V183.437C66.6407 178.706 70.5432 174.686 75.3326 174.508L485.508 159.214C491.48 158.997 496.388 163.156 496.388 168.457V193.351L66.6407 205.649Z" fill="url(#paint6_linear)"/>
<path d="M466.409 176.459C466.409 178.332 468.104 179.79 470.213 179.711C472.322 179.652 474.017 178.075 474.017 176.203C474.017 174.33 472.302 172.872 470.213 172.951C468.104 173.01 466.409 174.587 466.409 176.459Z" fill="white"/>
<path d="M450.031 176.992C450.031 178.844 451.706 180.303 453.776 180.224C455.845 180.165 457.54 178.608 457.54 176.735C457.54 174.883 455.845 173.424 453.776 173.503C451.706 173.582 450.031 175.139 450.031 176.992Z" fill="white"/>
<path d="M433.849 177.524C433.849 179.357 435.504 180.815 437.554 180.736C439.604 180.677 441.279 179.12 441.279 177.268C441.279 175.415 439.604 173.976 437.554 174.055C435.504 174.134 433.849 175.671 433.849 177.524Z" fill="white"/>
<path d="M56.3131 421.409V469.934C56.3131 475.078 60.6886 479.473 65.8919 479.71L81.6202 480.38L497.866 497.961C504.429 498.237 509.968 493.704 509.968 487.889V432.427L324.166 427.913L56.3131 421.409Z" fill="url(#paint7_linear)"/>
<path opacity="0.1" d="M81.6781 480.361L497.904 497.961C504.468 498.237 509.986 493.704 509.986 487.89V154.68C509.986 148.866 504.487 144.333 497.904 144.589L461.422 146.047C455.824 149.792 450.818 154.424 446.817 159.923C446.64 160.16 446.443 160.416 446.285 160.652C443.171 165.067 440.963 169.679 439.406 174.429C438.717 176.499 438.165 178.588 437.711 180.717C436.706 185.407 436.213 190.197 435.997 195.065C435.563 205.334 436.351 215.878 436.312 226.246C436.233 247.295 434.913 268.306 420.958 285.256C410.611 297.811 393.779 302.561 379.805 309.854C363.485 318.368 349.176 329.662 340.898 346.434C330.728 367.031 340.267 389.382 333.783 410.648C333.29 412.284 332.699 413.9 332.009 415.438C330.038 419.951 327.377 424.11 324.184 427.874C324.007 428.091 323.83 428.308 323.633 428.525C311.196 442.814 291.289 451.743 274.024 456.079C238.606 464.928 201.867 449.594 166.705 448.372C141.378 447.505 106.335 453.221 87.7092 472.28C85.4426 474.625 83.4322 477.345 81.6781 480.361Z" fill="white"/>
<path d="M543.335 491.103L424.605 485.939L287.801 490.728L422.772 520.234L543.335 491.103Z" fill="url(#paint8_linear)"/>
<path d="M447.684 605.517L543.867 579.638C553.544 577.036 561.073 567.438 561.073 558.135V558.036C561.073 548.734 553.544 542.486 543.867 544.2L440.707 561.072L447.684 605.517Z" fill="url(#paint9_linear)"/>
<path d="M287.641 586.083L443.05 603.447C452.787 604.532 460.789 597.751 460.789 588.271V581.846C460.789 572.366 452.787 564.048 443.05 563.279L287.641 550.902C294.519 563.693 296.096 575.677 287.641 586.083Z" fill="url(#paint10_linear)"/>
<path d="M286.282 587.798L441.731 605.418C454.424 606.857 464.949 597.968 464.949 585.57V585.432C464.949 573.035 454.424 562.136 441.731 561.15L286.282 549.029C285.356 548.95 284.587 549.738 284.587 550.763C284.587 551.788 285.336 552.695 286.282 552.774L441.731 565.427C451.941 566.255 460.377 575.045 460.377 584.999V585.137C460.377 595.09 451.941 602.264 441.731 601.141L286.282 584.053C285.356 583.954 284.587 584.703 284.587 585.748C284.607 586.773 285.356 587.699 286.282 587.798Z" fill="url(#paint11_linear)"/>
<path d="M443.644 561.17L543.867 544.181C553.544 542.466 561.073 529.773 561.073 515.799V515.641C561.073 501.667 553.544 490.571 543.867 490.945L437.554 494.887L443.644 561.17Z" fill="url(#paint12_linear)"/>
<path d="M287.641 546.31L434.339 557.367C448.806 558.451 460.789 547.827 460.789 533.597V523.939C460.789 509.709 448.806 497.844 434.339 497.45L287.641 493.449C294.539 512.666 296.076 530.621 287.641 546.31Z" fill="url(#paint13_linear)"/>
<path d="M286.282 549.029L441.731 561.151C454.424 562.136 464.949 547.827 464.949 529.202V529.004C464.949 510.399 454.424 494.986 441.731 494.67L286.282 490.807C285.356 490.788 284.587 492.029 284.587 493.567C284.587 495.104 285.336 496.405 286.282 496.425L441.731 501.096C451.941 501.411 460.377 513.808 460.377 528.768V528.965C460.377 543.905 451.941 555.455 441.731 554.725L286.282 543.392C285.356 543.333 284.587 544.536 284.587 546.073C284.587 547.61 285.356 548.951 286.282 549.029Z" fill="url(#paint14_linear)"/>
<path opacity="0.5" d="M474.706 547.157L496.13 543.412C501.137 529.753 500.762 517.218 496.13 502.219L474.706 503.737C479.101 519.524 478.431 533.814 474.706 547.157Z" fill="white"/>
<path d="M17.5051 574.375L251.517 591.089L250.314 608L16.3028 591.286C14.2136 585.452 14.6078 579.815 17.5051 574.375Z" fill="url(#paint15_linear)"/>
<path d="M15.0801 585.965C14.8633 583.816 15.021 581.708 15.5137 579.599L251.161 596.431L250.708 602.777L15.0801 585.965Z" fill="url(#paint16_linear)"/>
<path d="M251.536 591.089C247.89 596.431 247.436 602.048 250.334 608L303.865 603.881C304.476 603.802 304.535 602.935 303.944 602.777L251.536 591.089Z" fill="url(#paint17_linear)"/>
<path d="M303.865 603.881L283.051 605.477C282.618 603.014 282.795 600.589 283.564 598.224L303.944 602.777C304.535 602.935 304.476 603.802 303.865 603.881Z" fill="url(#paint18_linear)"/>
<path d="M136.51 159.115V158.859C136.51 155.153 133.553 152.158 129.966 152.236L127.502 152.118L115.736 156.671V160.337L136.51 159.115Z" fill="url(#paint19_linear)"/>
<path d="M73.1633 237.224L99.377 217.081L125.847 236.002V172.399C125.847 167.432 128.153 162.682 132.095 159.47L132.292 159.312L82.3283 161.224C77.2629 161.421 73.1633 165.698 73.1633 170.763V237.224Z" fill="#D8DEE8"/>
<path d="M68.3753 234.563L94.589 213.237L121.059 233.262V165.974C121.059 160.731 123.365 155.686 127.307 152.296L127.504 152.118L77.5402 154.129C72.4748 154.326 68.3753 158.859 68.3753 164.22V234.563Z" fill="url(#paint20_linear)"/>
<path d="M46.0056 403.927L46.4196 544.2C46.4393 551.079 51.9974 557.327 58.9745 558.056L161.523 568.561C169.427 569.369 175.892 563.91 175.892 556.518V405.543C175.892 398.527 170.156 392.752 162.883 392.062C162.41 392.023 161.937 392.003 161.464 392.003L58.5409 391.51C51.5243 391.431 45.9859 397.009 46.0056 403.927Z" fill="url(#paint21_linear)"/>
<path d="M38.7331 403.829L39.1667 543.668C39.1864 550.527 44.4291 556.736 51.3472 557.445L153.186 567.871C161.031 568.679 167.771 563.259 167.771 555.888L167.752 405.406C167.752 398.428 161.898 392.654 154.665 391.964C154.211 391.924 153.581 391.905 153.108 391.905L50.8742 391.412C43.9364 391.372 38.7134 396.931 38.7331 403.829Z" fill="url(#paint22_linear)"/>
<g opacity="0.3">
<path opacity="0.3" d="M38.7342 403.631L38.8327 438.773L167.753 443.011V405.188C167.753 398.369 162.155 392.83 155.178 391.904C154.548 391.825 153.759 391.884 153.109 391.884L50.8753 391.392C43.9375 391.372 38.7145 396.713 38.7342 403.631Z" fill="url(#paint23_linear)"/>
<path opacity="0.3" d="M38.8129 427.973L38.8523 442.577C51.3679 446.539 74.3886 449.732 100.799 450.757C112.467 451.21 123.741 451.19 133.931 450.777C147.511 450.205 158.962 448.924 167.772 447.111V431.402C164.461 430.594 161.426 429.825 157.799 429.116C149.955 427.559 140.494 426.258 130.167 425.292C120.943 424.425 110.93 423.853 100.602 423.617C87.3181 423.301 74.9799 423.617 64.3565 424.385C63.5287 424.445 62.7009 424.504 61.9125 424.583C59.37 424.799 56.9457 425.036 54.62 425.292C53.7922 425.391 52.9841 425.489 52.1957 425.588C50.3824 425.824 48.8253 426.061 47.1697 426.317C44.0162 426.79 41.1977 427.362 38.8129 427.973Z" fill="url(#paint24_linear)"/>
</g>
<path d="M45.0409 431.343C45.0409 433.432 46.7557 435.186 48.8449 435.245L154.646 438.478C157.011 438.557 158.942 436.802 158.942 434.575V409.308C158.942 407.08 157.011 405.247 154.646 405.208L48.766 403.927C46.6768 403.907 44.9818 405.583 44.9818 407.672L45.0409 431.343Z" fill="white"/>
<path d="M47.4455 430.89C47.4455 432.21 48.5295 433.314 49.8501 433.353L155.139 436.448C156.636 436.487 157.858 435.383 157.858 433.984V408.835C157.858 407.435 156.636 406.272 155.139 406.253L49.791 404.912C48.4704 404.893 47.3864 405.957 47.3864 407.278L47.4455 430.89Z" fill="url(#paint25_linear)"/>
<path d="M62.0119 416.876C62.0119 417.527 62.544 417.96 63.2141 417.98H63.2733C63.9434 418 64.4756 417.586 64.4756 416.935L64.4559 412.067C64.4559 411.417 63.9237 410.924 63.2536 410.904H63.1945C62.5243 410.885 61.9922 411.377 61.9922 412.028L62.0119 416.876Z" fill="url(#paint26_linear)"/>
<path d="M52.2555 416.699C52.2555 417.349 52.7876 417.803 53.438 417.803H53.4971C54.1475 417.822 54.6797 417.389 54.6797 416.738L54.66 411.87C54.66 411.22 54.1278 410.707 53.4774 410.707H53.4183C52.7679 410.687 52.2357 411.18 52.2357 411.831L52.2555 416.699Z" fill="url(#paint27_linear)"/>
<path d="M62.0304 427.775C62.0304 428.426 62.5626 429.096 63.2327 429.096H63.2919C63.962 429.116 64.4941 428.485 64.4941 427.835L64.4745 422.828C64.4745 422.178 63.9423 421.527 63.2722 421.508H63.213C62.5429 421.488 62.0108 422.119 62.0108 422.769L62.0304 427.775Z" fill="url(#paint28_linear)"/>
<path d="M52.274 427.578C52.274 428.229 52.8061 428.446 53.4565 428.958H53.5157C54.1661 428.978 54.6982 428.288 54.6982 427.638L54.6785 422.395C54.6785 421.744 54.1464 420.857 53.4959 420.838H53.4369C52.7864 420.818 52.2543 421.685 52.2543 422.336L52.274 427.578Z" fill="url(#paint29_linear)"/>
<path opacity="0.3" d="M54.6588 419.263C54.6588 419.913 55.2107 420.465 55.8611 420.465L60.552 420.563C61.2221 420.583 61.498 420.051 61.498 419.401V419.341C61.498 418.691 61.2221 418.139 60.552 418.139L55.7231 418.041C55.0727 418.021 54.6391 418.533 54.6391 419.203V419.263H54.6588Z" fill="url(#paint30_linear)"/>
<path d="M54.6577 409.092C54.6577 409.743 55.1898 410.294 55.8599 410.294L60.5705 410.373C61.2407 410.393 61.5166 409.861 61.5166 409.21V409.151C61.5166 408.501 61.2209 407.949 60.5508 407.949L55.722 407.87C55.0716 407.87 54.6577 408.383 54.6577 409.033V409.092Z" fill="url(#paint31_linear)"/>
<path d="M54.6589 429.886C54.6589 430.536 55.2305 431.088 55.8809 431.108L60.828 431.246C61.4981 431.265 62.0303 430.753 62.0303 430.083V430.024C62.0303 429.373 61.4981 428.821 60.828 428.802L55.8612 428.664C55.2108 428.644 54.6392 429.156 54.6392 429.807V429.886H54.6589Z" fill="url(#paint32_linear)"/>
<path opacity="0.3" d="M92.8949 552.616C93.3088 554.961 93.9986 557.326 95.0433 559.554C95.4177 560.342 95.8316 561.17 96.285 562.017L153.186 567.851C161.031 568.659 167.771 563.239 167.771 555.868L167.752 405.169C167.752 398.349 162.154 392.692 155.177 391.766C155 391.806 154.763 391.865 154.586 391.924C147.234 394.151 139.232 398.29 134.462 406.036C131.486 410.865 129.712 417.132 130.107 425.253C130.205 427.362 130.442 429.589 130.855 431.934C131.092 433.314 131.329 434.713 131.565 436.132C131.861 437.926 132.156 439.739 132.452 441.592C132.905 444.568 133.339 447.623 133.674 450.698C133.989 453.654 134.246 456.63 134.364 459.606C134.384 460.178 134.403 460.75 134.423 461.341C134.462 463.194 134.462 465.046 134.403 466.899C134.364 468.16 134.285 469.402 134.167 470.644C133.556 477.601 131.92 484.224 128.648 489.979C126.165 494.315 122.44 497.626 118.517 500.661C117.492 501.469 116.448 502.258 115.403 503.027C111.836 505.707 108.446 508.506 105.43 511.64C105.351 511.718 105.273 511.797 105.213 511.876C103.755 513.413 102.375 515.03 101.114 516.764C99.7144 518.696 98.5516 520.726 97.5661 522.854C97.1916 523.662 96.8368 524.51 96.5215 525.338C95.9696 526.777 95.4769 528.274 95.063 529.792C94.8659 530.462 94.6885 531.172 94.5111 531.862C94.5111 531.881 94.4914 531.921 94.4914 531.94C93.7818 534.719 93.1709 537.617 92.7964 540.554C92.2642 544.574 92.1854 548.634 92.8949 552.616Z" fill="white"/>
<path d="M134.146 468.516C134.146 469.994 135.408 471.255 136.985 471.334L156.083 472.28C157.68 472.359 158.98 471.216 158.98 469.698V462.839C158.98 461.341 157.68 460.06 156.083 460.001L136.985 459.193C135.428 459.134 134.146 460.277 134.166 461.755L134.146 468.516Z" fill="url(#paint33_linear)"/>
<path d="M103.28 467.057C103.28 468.516 104.502 469.758 106.02 469.817L124.448 470.723C125.986 470.802 127.247 469.659 127.247 468.201V461.46C127.247 459.982 125.986 458.74 124.448 458.661L106 457.873C104.483 457.814 103.261 458.937 103.28 460.396V467.057Z" fill="url(#paint34_linear)"/>
<path d="M74.4661 465.677C74.4661 467.116 75.6487 468.318 77.1072 468.397L94.9443 469.284C96.4423 469.363 97.6445 468.24 97.6445 466.801L97.6249 460.178C97.6249 458.72 96.4028 457.498 94.9049 457.439L77.0678 456.69C75.6093 456.631 74.4267 457.734 74.4267 459.173L74.4661 465.677Z" fill="url(#paint35_linear)"/>
<path d="M45.6312 464.298C45.6312 465.697 46.7743 466.899 48.1934 466.978L65.4195 467.826C66.8583 467.905 68.041 466.801 68.0212 465.382L68.0015 458.878C68.0015 457.458 66.8189 456.236 65.3801 456.177L48.1343 455.448C46.7152 455.389 45.5721 456.473 45.5918 457.892L45.6312 464.298Z" fill="url(#paint36_linear)"/>
<path d="M134.166 490.216C134.166 491.694 135.428 492.975 137.004 493.074L156.083 494.237C157.68 494.335 158.98 493.192 158.98 491.694V484.855C158.98 483.357 157.68 482.076 156.083 481.977L136.985 480.933C135.428 480.854 134.166 481.977 134.166 483.455V490.216Z" fill="url(#paint37_linear)"/>
<path d="M103.32 488.383C103.32 489.841 104.542 491.083 106.06 491.182L124.488 492.305C126.026 492.404 127.287 491.28 127.287 489.802V483.081C127.287 481.603 126.026 480.341 124.488 480.263L106.06 479.257C104.542 479.179 103.34 480.282 103.34 481.741L103.32 488.383Z" fill="url(#paint38_linear)"/>
<path d="M74.5249 486.649C74.5249 488.087 75.7074 489.309 77.1659 489.408L94.9833 490.512C96.4813 490.61 97.6836 489.506 97.6836 488.048L97.6639 481.426C97.6639 479.967 96.4419 478.745 94.9439 478.647L77.1265 477.681C75.668 477.602 74.4854 478.686 74.4854 480.125L74.5249 486.649Z" fill="url(#paint39_linear)"/>
<path d="M45.6901 484.914C45.6901 486.313 46.8332 487.535 48.2523 487.614L65.4784 488.679C66.9172 488.757 68.0801 487.693 68.0801 486.254L68.0604 479.75C68.0604 478.331 66.8778 477.109 65.439 477.03L48.2129 476.084C46.7938 476.005 45.6703 477.089 45.6703 478.489L45.6901 484.914Z" fill="url(#paint40_linear)"/>
<path d="M134.186 511.403C134.186 512.881 135.447 514.162 137.024 514.281L156.103 515.68C157.699 515.798 159 514.675 159 513.177V506.338C159 504.84 157.699 503.539 156.103 503.44L137.024 502.179C135.467 502.08 134.205 503.184 134.205 504.662L134.186 511.403Z" fill="url(#paint41_linear)"/>
<path d="M103.36 509.196C103.36 510.655 104.582 511.916 106.099 512.034L124.508 513.394C126.045 513.512 127.307 512.409 127.307 510.93V504.21C127.307 502.731 126.045 501.47 124.508 501.352L106.079 500.13C104.562 500.031 103.36 501.135 103.36 502.574V509.196Z" fill="url(#paint42_linear)"/>
<path d="M74.5639 507.126C74.5639 508.545 75.7465 509.807 77.205 509.905L95.0225 511.206C96.5204 511.324 97.7227 510.24 97.7227 508.782L97.7029 502.179C97.7029 500.74 96.4809 499.479 95.0027 499.38L77.1853 498.198C75.7268 498.099 74.5442 499.183 74.5442 500.602L74.5639 507.126Z" fill="url(#paint43_linear)"/>
<path d="M45.7496 505.057C45.7496 506.456 46.8928 507.678 48.3119 507.777L65.538 509.038C66.9768 509.137 68.1396 508.072 68.1396 506.653L68.12 500.149C68.12 498.73 66.9374 497.488 65.4986 497.39L48.2724 496.247C46.8533 496.148 45.7299 497.212 45.7299 498.612L45.7496 505.057Z" fill="url(#paint44_linear)"/>
<path d="M134.206 532.059C134.206 533.537 135.467 534.838 137.024 534.976L156.083 536.592C157.68 536.73 158.98 535.626 158.98 534.128V527.289C158.98 525.791 157.68 524.471 156.083 524.352L137.004 522.854C135.447 522.736 134.186 523.84 134.186 525.298L134.206 532.059Z" fill="url(#paint45_linear)"/>
<path d="M103.38 529.477C103.38 530.935 104.602 532.197 106.12 532.335L124.528 533.892C126.066 534.03 127.327 532.946 127.327 531.468V524.747C127.327 523.268 126.066 521.987 124.528 521.869L106.12 520.43C104.602 520.312 103.4 521.396 103.4 522.835L103.38 529.477Z" fill="url(#paint46_linear)"/>
<path d="M74.6042 527.092C74.6042 528.511 75.7867 529.772 77.2452 529.891L95.043 531.408C96.5409 531.527 97.7432 530.462 97.7432 529.024L97.7235 522.421C97.7235 520.982 96.5015 519.701 95.0233 519.583L77.2058 518.183C75.7473 518.065 74.5648 519.129 74.5648 520.568L74.6042 527.092Z" fill="url(#paint47_linear)"/>
<path d="M134.226 554.193C134.226 555.671 135.488 556.992 137.045 557.13L156.104 558.982C157.7 559.14 159.001 558.056 159.001 556.558V549.739C159.001 548.241 157.7 546.92 156.104 546.762L137.045 545.028C135.488 544.89 134.226 545.974 134.226 547.452V554.193Z" fill="url(#paint48_linear)"/>
<path d="M103.42 551.236C103.42 552.695 104.642 553.976 106.16 554.134L124.568 555.927C126.106 556.085 127.367 555.001 127.367 553.542V546.841C127.367 545.363 126.106 544.062 124.568 543.924L106.16 542.249C104.662 542.111 103.44 543.175 103.44 544.634L103.42 551.236Z" fill="url(#paint49_linear)"/>
<path d="M74.6628 548.496C74.6628 549.915 75.8453 551.197 77.3038 551.335L95.1016 553.069C96.5995 553.207 97.8018 552.162 97.8018 550.724L97.7821 544.121C97.7821 542.682 96.56 541.401 95.0818 541.263L77.2841 539.647C75.8256 539.509 74.643 540.573 74.643 541.992L74.6628 548.496Z" fill="url(#paint50_linear)"/>
<path d="M48.4099 515.936L65.636 517.276C67.0748 517.395 68.1588 519.011 68.1588 520.43V524.096V527.151L68.1982 540.928V544.988V547.629C68.1982 549.048 67.1142 550.329 65.6754 550.191L48.469 548.516C47.0499 548.378 45.8279 546.9 45.8279 545.5V542.879L45.8082 538.878L45.7688 525.278V522.263L45.7491 518.656C45.7688 517.257 47.0105 515.837 48.4099 515.936Z" fill="url(#paint51_linear)"/>
<path d="M133.082 468.475C133.082 469.953 134.344 471.214 135.92 471.293L154.999 472.239C156.596 472.318 157.896 471.175 157.896 469.657V462.798C157.896 461.3 156.596 460.019 154.999 459.96L135.92 459.152C134.363 459.093 133.102 460.236 133.102 461.714L133.082 468.475Z" fill="url(#paint52_linear)"/>
<path d="M103.28 467.056C103.28 468.514 104.502 469.756 106.02 469.815L124.448 470.722C125.986 470.801 127.247 469.658 127.247 468.199V461.458C127.247 459.98 125.986 458.739 124.448 458.66L106 457.871C104.483 457.812 103.261 458.936 103.28 460.394V467.056Z" fill="url(#paint53_linear)"/>
<path d="M73.4809 465.617C73.4809 467.056 74.6635 468.258 76.122 468.337L93.9395 469.224C95.4374 469.303 96.6396 468.18 96.6396 466.741L96.6199 460.118C96.6199 458.66 95.3979 457.438 93.9197 457.379L76.1023 456.63C74.6438 456.571 73.4612 457.674 73.4612 459.113L73.4809 465.617Z" fill="url(#paint54_linear)"/>
<path d="M44.6658 464.238C44.6658 465.637 45.8089 466.839 47.228 466.918L64.4344 467.766C65.8732 467.844 67.0361 466.741 67.0361 465.322L67.0164 458.817C67.0164 457.398 65.8338 456.196 64.395 456.117L47.1689 455.388C45.7498 455.329 44.6263 456.413 44.6263 457.832L44.6658 464.238Z" fill="url(#paint55_linear)"/>
<path d="M133.102 490.156C133.102 491.634 134.363 492.915 135.921 493.014L154.98 494.177C156.576 494.275 157.877 493.132 157.877 491.634V484.795C157.877 483.297 156.576 482.016 154.98 481.917L135.921 480.873C134.363 480.794 133.102 481.917 133.102 483.395V490.156Z" fill="url(#paint56_linear)"/>
<path d="M103.321 488.382C103.321 489.84 104.543 491.082 106.061 491.181L124.489 492.304C126.027 492.403 127.288 491.279 127.288 489.801V483.08C127.288 481.602 126.027 480.34 124.489 480.262L106.061 479.256C104.543 479.178 103.341 480.281 103.341 481.74L103.321 488.382Z" fill="url(#paint57_linear)"/>
<path d="M73.5192 486.589C73.5192 488.008 74.7018 489.25 76.1603 489.328L93.958 490.412C95.4559 490.511 96.6582 489.407 96.6582 487.949L96.6385 481.346C96.6385 479.907 95.4165 478.666 93.9383 478.567L76.1406 477.601C74.6821 477.522 73.4995 478.606 73.4995 480.045L73.5192 486.589Z" fill="url(#paint58_linear)"/>
<path d="M44.7244 484.854C44.7244 486.253 45.8675 487.475 47.2866 487.554L64.4931 488.618C65.9319 488.697 67.0947 487.633 67.0947 486.194L67.075 479.69C67.075 478.271 65.8925 477.049 64.4537 476.97L47.2472 476.024C45.8281 475.945 44.7047 477.029 44.7047 478.429L44.7244 484.854Z" fill="url(#paint59_linear)"/>
<path d="M133.121 511.324C133.121 512.802 134.382 514.083 135.939 514.202L154.998 515.601C156.595 515.719 157.896 514.596 157.896 513.098V506.259C157.896 504.761 156.595 503.46 154.998 503.361L135.939 502.1C134.382 502.001 133.121 503.105 133.121 504.583V511.324Z" fill="url(#paint60_linear)"/>
<path d="M103.36 509.195C103.36 510.654 104.582 511.915 106.099 512.033L124.508 513.393C126.045 513.511 127.307 512.408 127.307 510.93V504.209C127.307 502.73 126.045 501.469 124.508 501.351L106.079 500.129C104.562 500.03 103.36 501.134 103.36 502.573V509.195Z" fill="url(#paint61_linear)"/>
<path d="M73.5778 507.047C73.5778 508.467 74.7604 509.708 76.2189 509.826L94.0166 511.127C95.5145 511.246 96.7168 510.162 96.7168 508.703L96.6971 502.1C96.6971 500.662 95.4751 499.4 93.9969 499.302L76.1992 498.119C74.7407 498.02 73.5581 499.104 73.5581 500.524L73.5778 507.047Z" fill="url(#paint62_linear)"/>
<path d="M44.781 504.977C44.781 506.377 45.9242 507.599 47.3433 507.697L64.5497 508.959C65.9885 509.057 67.1514 507.993 67.1514 506.574L67.1317 500.089C67.1317 498.67 65.9491 497.428 64.5103 497.35L47.3039 496.207C45.8848 496.108 44.7613 497.172 44.7613 498.572L44.781 504.977Z" fill="url(#paint63_linear)"/>
<path d="M133.141 531.96C133.141 533.438 134.403 534.739 135.96 534.877L154.999 536.493C156.596 536.631 157.896 535.527 157.896 534.029V527.21C157.896 525.712 156.596 524.391 154.999 524.273L135.96 522.795C134.403 522.677 133.141 523.78 133.141 525.239V531.96Z" fill="url(#paint64_linear)"/>
<path d="M103.38 529.476C103.38 530.935 104.602 532.196 106.12 532.334L124.528 533.891C126.066 534.029 127.327 532.945 127.327 531.467V524.746C127.327 523.268 126.066 521.987 124.528 521.869L106.12 520.43C104.602 520.311 103.4 521.395 103.4 522.834L103.38 529.476Z" fill="url(#paint65_linear)"/>
<path d="M73.618 526.993C73.618 528.412 74.8005 529.674 76.2591 529.792L94.0371 531.31C95.535 531.428 96.7373 530.364 96.7373 528.925L96.7176 522.322C96.7176 520.883 95.4956 519.602 94.0174 519.504L76.2196 518.104C74.7611 517.986 73.5786 519.05 73.5786 520.489L73.618 526.993Z" fill="url(#paint66_linear)"/>
<path d="M133.161 554.094C133.161 555.572 134.422 556.892 135.979 557.03L155.019 558.883C156.615 559.041 157.916 557.957 157.916 556.459V549.639C157.916 548.141 156.615 546.821 155.019 546.663L135.979 544.948C134.422 544.81 133.161 545.894 133.161 547.353V554.094Z" fill="url(#paint67_linear)"/>
<path d="M103.419 551.235C103.419 552.694 104.641 553.975 106.159 554.133L124.567 555.926C126.105 556.084 127.366 555 127.366 553.541V546.84C127.366 545.362 126.105 544.061 124.567 543.923L106.159 542.248C104.661 542.11 103.439 543.174 103.439 544.633L103.419 551.235Z" fill="url(#paint68_linear)"/>
<path d="M73.658 548.398C73.658 549.817 74.8406 551.098 76.2991 551.236L94.0771 552.97C95.5751 553.108 96.7773 552.064 96.7773 550.625L96.7576 544.042C96.7576 542.603 95.5356 541.322 94.0574 541.184L76.2794 539.568C74.8209 539.43 73.6383 540.494 73.658 541.913V548.398Z" fill="url(#paint69_linear)"/>
<path d="M47.4242 515.857L64.6306 517.197C66.0694 517.315 67.1928 518.932 67.1928 520.37V524.017V527.072L67.2323 540.849L67.252 544.909V547.55C67.252 548.969 66.1482 550.23 64.7094 550.092L47.5227 548.417C46.1233 548.279 44.921 546.801 44.921 545.401V542.78L44.9013 538.779L44.8619 525.18V522.164L44.8422 518.557C44.8225 517.177 46.0051 515.758 47.4242 515.857Z" fill="url(#paint70_linear)"/>
<path d="M203.482 277.629V351.757C203.482 359.739 208.448 367.11 216.884 373.141C218.914 374.58 221.122 375.96 223.526 377.241C236.653 384.238 255.16 388.594 275.638 388.594C296.116 388.594 314.624 384.238 327.75 377.241C340.167 370.619 347.795 361.651 347.795 351.757V277.629H203.482Z" fill="url(#paint71_linear)"/>
<path opacity="0.3" d="M216.866 373.141C218.896 374.58 221.103 375.959 223.508 377.241C236.634 384.237 255.141 388.593 275.62 388.593C296.098 388.593 314.605 384.237 327.732 377.241C340.149 370.618 347.776 361.65 347.776 351.756V313.46C337.744 317.935 323.297 326.686 320.636 340.837C316.478 362.991 286.046 370.48 255.772 365.494C242.468 363.286 228.514 366.755 216.866 373.141Z" fill="url(#paint72_linear)"/>
<path d="M165.719 284.763L273.944 231.311L382.189 284.763H386.367V286.577L273.845 342.177L161.324 286.577V284.763H165.719Z" fill="url(#paint73_linear)"/>
<path d="M273.945 228.828L386.546 284.428L273.945 340.029L161.364 284.428L273.945 228.828Z" fill="url(#paint74_linear)"/>
<path d="M162.033 361.631C162.861 361.631 163.452 360.961 163.452 360.133V287.247C163.452 285.591 164.654 284.054 166.29 284.054H273.924C274.752 284.054 275.422 283.443 275.422 282.635C275.422 281.827 274.752 281.216 273.924 281.216H166.29C162.999 281.216 160.594 283.975 160.594 287.267V360.153C160.614 360.961 161.205 361.631 162.033 361.631Z" fill="url(#paint75_linear)"/>
<path d="M158.25 348.386L159.531 346.119C160.024 345.252 160.93 344.74 161.916 344.759C162.901 344.779 163.808 345.331 164.261 346.198L165.325 348.563C165.621 349.135 165.621 349.766 165.621 350.416V370.244C165.621 370.677 163.965 371.012 161.699 371.012C159.432 371.012 157.777 370.658 157.777 370.244V350.337C157.757 349.647 157.915 348.977 158.25 348.386Z" fill="url(#paint76_linear)"/>
<defs>
<linearGradient id="paint0_linear" x1="554.353" y1="132.894" x2="452.731" y2="476.194" gradientUnits="userSpaceOnUse">
<stop offset="0.00359712" stop-color="#BEB8F2"/>
<stop offset="1" stop-color="#9571F6"/>
</linearGradient>
<linearGradient id="paint1_linear" x1="251.226" y1="353.355" x2="596.587" y2="121.623" gradientUnits="userSpaceOnUse">
<stop stop-color="#FFD874"/>
<stop offset="1" stop-color="#FEC179"/>
</linearGradient>
<linearGradient id="paint2_linear" x1="354.064" y1="67.6299" x2="317.553" y2="390.163" gradientUnits="userSpaceOnUse">
<stop stop-color="#FF9085"/>
<stop offset="1" stop-color="#FB6FBB"/>
</linearGradient>
<linearGradient id="paint3_linear" x1="263.312" y1="481.923" x2="261.84" y2="537.141" gradientUnits="userSpaceOnUse">
<stop stop-color="#444B8C"/>
<stop offset="0.9964" stop-color="#26264F"/>
</linearGradient>
<linearGradient id="paint4_linear" x1="352.265" y1="265.441" x2="59.821" y2="407.731" gradientUnits="userSpaceOnUse">
<stop stop-color="#444B8C"/>
<stop offset="0.6447" stop-color="#313365"/>
<stop offset="0.9964" stop-color="#26264F"/>
</linearGradient>
<linearGradient id="paint5_linear" x1="496.386" y1="306.587" x2="66.631" y2="306.587" gradientUnits="userSpaceOnUse">
<stop stop-color="white"/>
<stop offset="0.9964" stop-color="#EBEFF2"/>
</linearGradient>
<linearGradient id="paint6_linear" x1="296.436" y1="162.494" x2="283.617" y2="237.645" gradientUnits="userSpaceOnUse">
<stop stop-color="#776DE1"/>
<stop offset="1" stop-color="#9277EE"/>
</linearGradient>
<linearGradient id="paint7_linear" x1="414.731" y1="393.588" x2="122.238" y2="535.902" gradientUnits="userSpaceOnUse">
<stop stop-color="#444B8C"/>
<stop offset="0.9964" stop-color="#26264F"/>
</linearGradient>
<linearGradient id="paint8_linear" x1="543.344" y1="503.089" x2="287.808" y2="503.089" gradientUnits="userSpaceOnUse">
<stop stop-color="#FFC444"/>
<stop offset="0.9964" stop-color="#F36F56"/>
</linearGradient>
<linearGradient id="paint9_linear" x1="515.049" y1="604.399" x2="494.219" y2="557.02" gradientUnits="userSpaceOnUse">
<stop stop-color="#AA80F9"/>
<stop offset="0.9964" stop-color="#6165D7"/>
</linearGradient>
<linearGradient id="paint10_linear" x1="458.154" y1="557.241" x2="216.72" y2="610.34" gradientUnits="userSpaceOnUse">
<stop stop-color="#F4F7FA"/>
<stop offset="0.9964" stop-color="#D8DEE8"/>
</linearGradient>
<linearGradient id="paint11_linear" x1="464.957" y1="577.304" x2="284.598" y2="577.304" gradientUnits="userSpaceOnUse">
<stop stop-color="#AA80F9"/>
<stop offset="0.9964" stop-color="#6165D7"/>
</linearGradient>
<linearGradient id="paint12_linear" x1="443.729" y1="552.976" x2="506.959" y2="449.107" gradientUnits="userSpaceOnUse">
<stop stop-color="#FFD874"/>
<stop offset="1" stop-color="#FEC179"/>
</linearGradient>
<linearGradient id="paint13_linear" x1="447.119" y1="507.065" x2="205.685" y2="560.164" gradientUnits="userSpaceOnUse">
<stop stop-color="#F4F7FA"/>
<stop offset="0.9964" stop-color="#D8DEE8"/>
</linearGradient>
<linearGradient id="paint14_linear" x1="293.605" y1="552.986" x2="344.36" y2="431.514" gradientUnits="userSpaceOnUse">
<stop stop-color="#FFD874"/>
<stop offset="1" stop-color="#FEC179"/>
</linearGradient>
<linearGradient id="paint15_linear" x1="168.445" y1="581.013" x2="151.38" y2="688.766" gradientUnits="userSpaceOnUse">
<stop stop-color="#FC6B6B"/>
<stop offset="1" stop-color="#FF6B9B"/>
</linearGradient>
<linearGradient id="paint16_linear" x1="168.214" y1="584.174" x2="159.987" y2="659.415" gradientUnits="userSpaceOnUse">
<stop stop-color="#FC6B6B"/>
<stop offset="1" stop-color="#FF6B9B"/>
</linearGradient>
<linearGradient id="paint17_linear" x1="251.237" y1="606.027" x2="261.283" y2="575.003" gradientUnits="userSpaceOnUse">
<stop stop-color="#FFD874"/>
<stop offset="1" stop-color="#FEC179"/>
</linearGradient>
<linearGradient id="paint18_linear" x1="296.793" y1="599.656" x2="288.956" y2="620.542" gradientUnits="userSpaceOnUse">
<stop stop-color="#FC6B6B"/>
<stop offset="1" stop-color="#FF6B9B"/>
</linearGradient>
<linearGradient id="paint19_linear" x1="136.516" y1="156.227" x2="115.733" y2="156.227" gradientUnits="userSpaceOnUse">
<stop stop-color="#AB316D"/>
<stop offset="1" stop-color="#792D3D"/>
</linearGradient>
<linearGradient id="paint20_linear" x1="71.3317" y1="224.945" x2="148.602" y2="173.181" gradientUnits="userSpaceOnUse">
<stop stop-color="#FFD874"/>
<stop offset="1" stop-color="#FEC179"/>
</linearGradient>
<linearGradient id="paint21_linear" x1="115.144" y1="772.045" x2="111.949" y2="534.351" gradientUnits="userSpaceOnUse">
<stop stop-color="#444B8C"/>
<stop offset="0.9964" stop-color="#26264F"/>
</linearGradient>
<linearGradient id="paint22_linear" x1="107.733" y1="403.913" x2="-4.36621" y2="455.827" gradientUnits="userSpaceOnUse">
<stop stop-color="#776DE1"/>
<stop offset="1" stop-color="#9277EE"/>
</linearGradient>
<linearGradient id="paint23_linear" x1="167.763" y1="417.202" x2="38.7353" y2="417.202" gradientUnits="userSpaceOnUse">
<stop stop-color="#AA80F9"/>
<stop offset="0.9964" stop-color="#6165D7"/>
</linearGradient>
<linearGradient id="paint24_linear" x1="107.77" y1="425.45" x2="93.8392" y2="466.698" gradientUnits="userSpaceOnUse">
<stop stop-color="#776DE1"/>
<stop offset="1" stop-color="#9277EE"/>
</linearGradient>
<linearGradient id="paint25_linear" x1="101.144" y1="385.435" x2="109.874" y2="584.478" gradientUnits="userSpaceOnUse">
<stop offset="0.00359712" stop-color="#D9D2FF"/>
<stop offset="1" stop-color="#9571F6"/>
</linearGradient>
<linearGradient id="paint26_linear" x1="62.9246" y1="407.517" x2="64.6368" y2="446.555" gradientUnits="userSpaceOnUse">
<stop stop-color="#311944"/>
<stop offset="1" stop-color="#A03976"/>
</linearGradient>
<linearGradient id="paint27_linear" x1="53.1528" y1="407.348" x2="54.8667" y2="446.425" gradientUnits="userSpaceOnUse">
<stop stop-color="#311944"/>
<stop offset="1" stop-color="#A03976"/>
</linearGradient>
<linearGradient id="paint28_linear" x1="62.9306" y1="417.908" x2="64.7645" y2="459.721" gradientUnits="userSpaceOnUse">
<stop stop-color="#311944"/>
<stop offset="1" stop-color="#A03976"/>
</linearGradient>
<linearGradient id="paint29_linear" x1="53.135" y1="417.004" x2="55.0929" y2="461.644" gradientUnits="userSpaceOnUse">
<stop stop-color="#311944"/>
<stop offset="1" stop-color="#A03976"/>
</linearGradient>
<linearGradient id="paint30_linear" x1="51.406" y1="419.607" x2="89.094" y2="417.954" gradientUnits="userSpaceOnUse">
<stop stop-color="#311944"/>
<stop offset="1" stop-color="#A03976"/>
</linearGradient>
<linearGradient id="paint31_linear" x1="51.4029" y1="409.429" x2="89.1014" y2="407.775" gradientUnits="userSpaceOnUse">
<stop stop-color="#311944"/>
<stop offset="1" stop-color="#A03976"/>
</linearGradient>
<linearGradient id="paint32_linear" x1="51.1585" y1="430.283" x2="91.7302" y2="428.504" gradientUnits="userSpaceOnUse">
<stop stop-color="#311944"/>
<stop offset="1" stop-color="#A03976"/>
</linearGradient>
<linearGradient id="paint33_linear" x1="35.9684" y1="404.17" x2="239.737" y2="517.525" gradientUnits="userSpaceOnUse">
<stop stop-color="#444B8C"/>
<stop offset="0.9964" stop-color="#3E4177"/>
</linearGradient>
<linearGradient id="paint34_linear" x1="31.6045" y1="417.715" x2="228.983" y2="527.515" gradientUnits="userSpaceOnUse">
<stop stop-color="#444B8C"/>
<stop offset="0.9964" stop-color="#3E4177"/>
</linearGradient>
<linearGradient id="paint35_linear" x1="27.645" y1="430.421" x2="219.15" y2="536.954" gradientUnits="userSpaceOnUse">
<stop stop-color="#444B8C"/>
<stop offset="0.9964" stop-color="#3E4177"/>
</linearGradient>
<linearGradient id="paint36_linear" x1="22.2488" y1="442.342" x2="207.967" y2="545.655" gradientUnits="userSpaceOnUse">
<stop stop-color="#444B8C"/>
<stop offset="0.9964" stop-color="#3E4177"/>
</linearGradient>
<linearGradient id="paint37_linear" x1="25.6474" y1="420.276" x2="230.411" y2="534.185" gradientUnits="userSpaceOnUse">
<stop stop-color="#444B8C"/>
<stop offset="0.9964" stop-color="#3E4177"/>
</linearGradient>
<linearGradient id="paint38_linear" x1="21.7388" y1="433.686" x2="220.08" y2="544.021" gradientUnits="userSpaceOnUse">
<stop stop-color="#444B8C"/>
<stop offset="0.9964" stop-color="#3E4177"/>
</linearGradient>
<linearGradient id="paint39_linear" x1="18.1976" y1="446.264" x2="210.636" y2="553.316" gradientUnits="userSpaceOnUse">
<stop stop-color="#444B8C"/>
<stop offset="0.9964" stop-color="#3E4177"/>
</linearGradient>
<linearGradient id="paint40_linear" x1="13.2093" y1="458.049" x2="199.831" y2="561.865" gradientUnits="userSpaceOnUse">
<stop stop-color="#444B8C"/>
<stop offset="0.9964" stop-color="#3E4177"/>
</linearGradient>
<linearGradient id="paint41_linear" x1="15.2472" y1="435.809" x2="220.982" y2="550.257" gradientUnits="userSpaceOnUse">
<stop stop-color="#444B8C"/>
<stop offset="0.9964" stop-color="#3E4177"/>
</linearGradient>
<linearGradient id="paint42_linear" x1="11.792" y1="449.092" x2="211.072" y2="559.95" gradientUnits="userSpaceOnUse">
<stop stop-color="#444B8C"/>
<stop offset="0.9964" stop-color="#3E4177"/>
</linearGradient>
<linearGradient id="paint43_linear" x1="8.66964" y1="461.55" x2="202.018" y2="569.108" gradientUnits="userSpaceOnUse">
<stop stop-color="#444B8C"/>
<stop offset="0.9964" stop-color="#3E4177"/>
</linearGradient>
<linearGradient id="paint44_linear" x1="4.0894" y1="473.209" x2="191.592" y2="577.515" gradientUnits="userSpaceOnUse">
<stop stop-color="#444B8C"/>
<stop offset="0.9964" stop-color="#3E4177"/>
</linearGradient>
<linearGradient id="paint45_linear" x1="4.77073" y1="450.772" x2="211.451" y2="565.747" gradientUnits="userSpaceOnUse">
<stop stop-color="#444B8C"/>
<stop offset="0.9964" stop-color="#3E4177"/>
</linearGradient>
<linearGradient id="paint46_linear" x1="1.76924" y1="463.939" x2="201.964" y2="575.305" gradientUnits="userSpaceOnUse">
<stop stop-color="#444B8C"/>
<stop offset="0.9964" stop-color="#3E4177"/>
</linearGradient>
<linearGradient id="paint47_linear" x1="-0.934986" y1="476.285" x2="193.3" y2="584.336" gradientUnits="userSpaceOnUse">
<stop stop-color="#444B8C"/>
<stop offset="0.9964" stop-color="#3E4177"/>
</linearGradient>
<linearGradient id="paint48_linear" x1="-5.84428" y1="467.158" x2="201.85" y2="582.696" gradientUnits="userSpaceOnUse">
<stop stop-color="#444B8C"/>
<stop offset="0.9964" stop-color="#3E4177"/>
</linearGradient>
<linearGradient id="paint49_linear" x1="-8.37946" y1="480.188" x2="192.796" y2="592.1" gradientUnits="userSpaceOnUse">
<stop stop-color="#444B8C"/>
<stop offset="0.9964" stop-color="#3E4177"/>
</linearGradient>
<linearGradient id="paint50_linear" x1="-10.6544" y1="492.406" x2="184.531" y2="600.985" gradientUnits="userSpaceOnUse">
<stop stop-color="#444B8C"/>
<stop offset="0.9964" stop-color="#3E4177"/>
</linearGradient>
<linearGradient id="paint51_linear" x1="-9.23616" y1="496.023" x2="178.432" y2="600.422" gradientUnits="userSpaceOnUse">
<stop stop-color="#444B8C"/>
<stop offset="0.9964" stop-color="#3E4177"/>
</linearGradient>
<linearGradient id="paint52_linear" x1="144.883" y1="452.122" x2="148.246" y2="528.777" gradientUnits="userSpaceOnUse">
<stop stop-color="#444B8C"/>
<stop offset="0.9964" stop-color="#26264F"/>
</linearGradient>
<linearGradient id="paint53_linear" x1="114.682" y1="450.991" x2="117.981" y2="526.2" gradientUnits="userSpaceOnUse">
<stop stop-color="#444B8C"/>
<stop offset="0.9964" stop-color="#26264F"/>
</linearGradient>
<linearGradient id="paint54_linear" x1="84.4757" y1="449.859" x2="87.7112" y2="523.626" gradientUnits="userSpaceOnUse">
<stop stop-color="#444B8C"/>
<stop offset="0.9964" stop-color="#26264F"/>
</linearGradient>
<linearGradient id="paint55_linear" x1="55.2851" y1="448.764" x2="58.4597" y2="521.144" gradientUnits="userSpaceOnUse">
<stop stop-color="#444B8C"/>
<stop offset="0.9964" stop-color="#26264F"/>
</linearGradient>
<linearGradient id="paint56_linear" x1="144.888" y1="473.745" x2="148.305" y2="551.643" gradientUnits="userSpaceOnUse">
<stop stop-color="#444B8C"/>
<stop offset="0.9964" stop-color="#26264F"/>
</linearGradient>
<linearGradient id="paint57_linear" x1="114.703" y1="472.254" x2="118.054" y2="548.665" gradientUnits="userSpaceOnUse">
<stop stop-color="#444B8C"/>
<stop offset="0.9964" stop-color="#26264F"/>
</linearGradient>
<linearGradient id="paint58_linear" x1="84.5082" y1="470.763" x2="87.7946" y2="545.691" gradientUnits="userSpaceOnUse">
<stop stop-color="#444B8C"/>
<stop offset="0.9964" stop-color="#26264F"/>
</linearGradient>
<linearGradient id="paint59_linear" x1="55.3317" y1="469.319" x2="58.5555" y2="542.821" gradientUnits="userSpaceOnUse">
<stop stop-color="#444B8C"/>
<stop offset="0.9964" stop-color="#26264F"/>
</linearGradient>
<linearGradient id="paint60_linear" x1="144.891" y1="494.842" x2="148.361" y2="573.958" gradientUnits="userSpaceOnUse">
<stop stop-color="#444B8C"/>
<stop offset="0.9964" stop-color="#26264F"/>
</linearGradient>
<linearGradient id="paint61_linear" x1="114.72" y1="493.001" x2="118.123" y2="570.588" gradientUnits="userSpaceOnUse">
<stop stop-color="#444B8C"/>
<stop offset="0.9964" stop-color="#26264F"/>
</linearGradient>
<linearGradient id="paint62_linear" x1="84.5405" y1="491.16" x2="87.8767" y2="567.224" gradientUnits="userSpaceOnUse">
<stop stop-color="#444B8C"/>
<stop offset="0.9964" stop-color="#26264F"/>
</linearGradient>
<linearGradient id="paint63_linear" x1="55.3751" y1="489.377" x2="58.647" y2="563.976" gradientUnits="userSpaceOnUse">
<stop stop-color="#444B8C"/>
<stop offset="0.9964" stop-color="#26264F"/>
</linearGradient>
<linearGradient id="paint64_linear" x1="144.896" y1="515.417" x2="148.419" y2="595.724" gradientUnits="userSpaceOnUse">
<stop stop-color="#444B8C"/>
<stop offset="0.9964" stop-color="#26264F"/>
</linearGradient>
<linearGradient id="paint65_linear" x1="114.74" y1="513.235" x2="118.193" y2="591.972" gradientUnits="userSpaceOnUse">
<stop stop-color="#444B8C"/>
<stop offset="0.9964" stop-color="#26264F"/>
</linearGradient>
<linearGradient id="paint66_linear" x1="84.5733" y1="511.052" x2="87.9582" y2="588.226" gradientUnits="userSpaceOnUse">
<stop stop-color="#444B8C"/>
<stop offset="0.9964" stop-color="#26264F"/>
</linearGradient>
<linearGradient id="paint67_linear" x1="144.901" y1="537.475" x2="148.479" y2="619.062" gradientUnits="userSpaceOnUse">
<stop stop-color="#444B8C"/>
<stop offset="0.9964" stop-color="#26264F"/>
</linearGradient>
<linearGradient id="paint68_linear" x1="114.759" y1="534.928" x2="118.267" y2="614.902" gradientUnits="userSpaceOnUse">
<stop stop-color="#444B8C"/>
<stop offset="0.9964" stop-color="#26264F"/>
</linearGradient>
<linearGradient id="paint69_linear" x1="84.6081" y1="532.379" x2="88.0454" y2="610.747" gradientUnits="userSpaceOnUse">
<stop stop-color="#444B8C"/>
<stop offset="0.9964" stop-color="#26264F"/>
</linearGradient>
<linearGradient id="paint70_linear" x1="54.5463" y1="498.866" x2="62.9992" y2="691.591" gradientUnits="userSpaceOnUse">
<stop stop-color="#444B8C"/>
<stop offset="0.9964" stop-color="#26264F"/>
</linearGradient>
<linearGradient id="paint71_linear" x1="310.173" y1="1274.51" x2="274.312" y2="278.11" gradientUnits="userSpaceOnUse">
<stop stop-color="#AA80F9"/>
<stop offset="0.9964" stop-color="#6165D7"/>
</linearGradient>
<linearGradient id="paint72_linear" x1="283.957" y1="388.394" x2="281.347" y2="315.862" gradientUnits="userSpaceOnUse">
<stop stop-color="#AA80F9"/>
<stop offset="0.9964" stop-color="#6165D7"/>
</linearGradient>
<linearGradient id="paint73_linear" x1="263.181" y1="206.076" x2="278.136" y2="317.649" gradientUnits="userSpaceOnUse">
<stop stop-color="#AA80F9"/>
<stop offset="0.9964" stop-color="#6165D7"/>
</linearGradient>
<linearGradient id="paint74_linear" x1="265.302" y1="174.488" x2="284.83" y2="422.635" gradientUnits="userSpaceOnUse">
<stop stop-color="#AA80F9"/>
<stop offset="0.9964" stop-color="#6165D7"/>
</linearGradient>
<linearGradient id="paint75_linear" x1="235.093" y1="297.089" x2="106.979" y2="461.298" gradientUnits="userSpaceOnUse">
<stop stop-color="#FC6B6B"/>
<stop offset="1" stop-color="#FF6B9B"/>
</linearGradient>
<linearGradient id="paint76_linear" x1="162.865" y1="349.941" x2="141.283" y2="355.731" gradientUnits="userSpaceOnUse">
<stop stop-color="#FC6B6B"/>
<stop offset="1" stop-color="#FF6B9B"/>
</linearGradient>
</defs>
</svg>
